{
    "asset" : {
        "generator" : "Khronos glTF Blender I/O v3.4.50",
        "version" : "2.0"
    },
    "extensionsUsed" : [
        "KHR_materials_clearcoat",
        "KHR_materials_specular"
    ],
    "scene" : 0,
    "scenes" : [
        {
            "name" : "Scene",
            "nodes" : [
                6
            ]
        }
    ],
    "nodes" : [
        {
            "mesh" : 0,
            "name" : "Object_2"
        },
        {
            "mesh" : 1,
            "name" : "Object_3"
        },
        {
            "mesh" : 2,
            "name" : "Object_4"
        },
        {
            "mesh" : 3,
            "name" : "Object_5"
        },
        {
            "mesh" : 4,
            "name" : "Object_6"
        },
        {
            "children" : [
                0,
                1,
                2,
                3,
                4
            ],
            "name" : "Titanic textured (8).obj.cleaner.materialmerger.gles"
        },
        {
            "children" : [
                5
            ],
            "name" : "Sketchfab_model",
            "rotation" : [
                -0.5000000596046448,
                0.4999999403953552,
                0.4999999403953552,
                0.5
            ],
            "translation" : [
                0,
                0,
                25.743566513061523
            ]
        }
    ],
    "materials" : [
        {
            "doubleSided" : true,
            "emissiveFactor" : [
                1,
                1,
                1
            ],
            "emissiveTexture" : {
                "index" : 0
            },
            "extensions" : {
                "KHR_materials_clearcoat" : {
                    "clearcoatFactor" : 1,
                    "clearcoatRoughnessFactor" : 1,
                    "clearcoatTexture" : {
                        "index" : 1
                    },
                    "clearcoatRoughnessTexture" : {
                        "index" : 1
                    },
                    "clearcoatNormalTexture" : {
                        "index" : 2
                    }
                },
                "KHR_materials_specular" : {
                    "specularColorTexture" : {
                        "index" : 3
                    }
                }
            },
            "name" : "Material.001",
            "occlusionTexture" : {
                "index" : 4
            },
            "pbrMetallicRoughness" : {
                "baseColorTexture" : {
                    "index" : 5
                },
                "metallicFactor" : 0.232638880610466,
                "metallicRoughnessTexture" : {
                    "index" : 4
                }
            }
        }
    ],
    "meshes" : [
        {
            "name" : "Object_0.002",
            "primitives" : [
                {
                    "attributes" : {
                        "POSITION" : 0,
                        "TEXCOORD_0" : 1,
                        "NORMAL" : 2
                    },
                    "indices" : 3,
                    "material" : 0
                }
            ]
        },
        {
            "name" : "Object_1.002",
            "primitives" : [
                {
                    "attributes" : {
                        "POSITION" : 4,
                        "TEXCOORD_0" : 5,
                        "NORMAL" : 6
                    },
                    "indices" : 7,
                    "material" : 0
                }
            ]
        },
        {
            "name" : "Object_2.002",
            "primitives" : [
                {
                    "attributes" : {
                        "POSITION" : 8,
                        "TEXCOORD_0" : 9,
                        "NORMAL" : 10
                    },
                    "indices" : 11,
                    "material" : 0
                }
            ]
        },
        {
            "name" : "Object_3.002",
            "primitives" : [
                {
                    "attributes" : {
                        "POSITION" : 12,
                        "TEXCOORD_0" : 13,
                        "NORMAL" : 14
                    },
                    "indices" : 15,
                    "material" : 0
                }
            ]
        },
        {
            "name" : "Object_4.002",
            "primitives" : [
                {
                    "attributes" : {
                        "POSITION" : 16,
                        "TEXCOORD_0" : 17,
                        "NORMAL" : 18
                    },
                    "indices" : 19,
                    "material" : 0
                }
            ]
        }
    ],
    "textures" : [
        {
            "sampler" : 0,
            "source" : 0
        },
        {
            "sampler" : 0,
            "source" : 1
        },
        {
            "sampler" : 0,
            "source" : 2
        },
        {
            "sampler" : 0,
            "source" : 3
        },
        {
            "sampler" : 0,
            "source" : 4
        },
        {
            "sampler" : 0,
            "source" : 0
        }
    ],
    "images" : [
        {
            "mimeType" : "image/jpeg",
            "name" : "Material_baseColor",
            "uri" : "Material_baseColor.jpg"
        },
        {
            "mimeType" : "image/png",
            "name" : "Material_clearcoat-Material_metallicRoughness",
            "uri" : "Material_clearcoat-Material_metallicRoughness.png"
        },
        {
            "mimeType" : "image/png",
            "name" : "Material_clearcoat_normal",
            "uri" : "Material_clearcoat_normal.png"
        },
        {
            "mimeType" : "image/png",
            "name" : "Image",
            "uri" : "Image.png"
        },
        {
            "mimeType" : "image/png",
            "name" : "Material_metallicRoughness",
            "uri" : "Material_metallicRoughness.png"
        }
    ],
    "accessors" : [
        {
            "bufferView" : 0,
            "componentType" : 5126,
            "count" : 8652,
            "max" : [
                122.10299682617188,
                10.659770011901855,
                53.063621520996094
            ],
            "min" : [
                -70.91531372070312,
                -12.116820335388184,
                -2.530700922012329
            ],
            "type" : "VEC3"
        },
        {
            "bufferView" : 1,
            "componentType" : 5126,
            "count" : 8652,
            "type" : "VEC2"
        },
        {
            "bufferView" : 2,
            "componentType" : 5126,
            "count" : 8652,
            "type" : "VEC3"
        },
        {
            "bufferView" : 3,
            "componentType" : 5123,
            "count" : 14577,
            "type" : "SCALAR"
        },
        {
            "bufferView" : 4,
            "componentType" : 5126,
            "count" : 18987,
            "max" : [
                115.82640075683594,
                8.269371032714844,
                22.429880142211914
            ],
            "min" : [
                -34.69171142578125,
                -11.853670120239258,
                13.541709899902344
            ],
            "type" : "VEC3"
        },
        {
            "bufferView" : 5,
            "componentType" : 5126,
            "count" : 18987,
            "type" : "VEC2"
        },
        {
            "bufferView" : 6,
            "componentType" : 5126,
            "count" : 18987,
            "type" : "VEC3"
        },
        {
            "bufferView" : 7,
            "componentType" : 5123,
            "count" : 29118,
            "type" : "SCALAR"
        },
        {
            "bufferView" : 8,
            "componentType" : 5126,
            "count" : 15254,
            "max" : [
                114.38839721679688,
                12.114509582519531,
                35.736671447753906
            ],
            "min" : [
                -53.10696029663086,
                -13.547060012817383,
                13.135499954223633
            ],
            "type" : "VEC3"
        },
        {
            "bufferView" : 9,
            "componentType" : 5126,
            "count" : 15254,
            "type" : "VEC2"
        },
        {
            "bufferView" : 10,
            "componentType" : 5126,
            "count" : 15254,
            "type" : "VEC3"
        },
        {
            "bufferView" : 11,
            "componentType" : 5123,
            "count" : 25584,
            "type" : "SCALAR"
        },
        {
            "bufferView" : 12,
            "componentType" : 5126,
            "count" : 14700,
            "max" : [
                124.47440338134766,
                10.614749908447266,
                31.959510803222656
            ],
            "min" : [
                -70.90560913085938,
                -12.144140243530273,
                0.18593449890613556
            ],
            "type" : "VEC3"
        },
        {
            "bufferView" : 13,
            "componentType" : 5126,
            "count" : 14700,
            "type" : "VEC2"
        },
        {
            "bufferView" : 14,
            "componentType" : 5126,
            "count" : 14700,
            "type" : "VEC3"
        },
        {
            "bufferView" : 15,
            "componentType" : 5123,
            "count" : 22782,
            "type" : "SCALAR"
        },
        {
            "bufferView" : 16,
            "componentType" : 5126,
            "count" : 6679,
            "max" : [
                120.25849914550781,
                10.88541030883789,
                53.063629150390625
            ],
            "min" : [
                -60.438560485839844,
                -12.16238021850586,
                0.9175748825073242
            ],
            "type" : "VEC3"
        },
        {
            "bufferView" : 17,
            "componentType" : 5126,
            "count" : 6679,
            "type" : "VEC2"
        },
        {
            "bufferView" : 18,
            "componentType" : 5126,
            "count" : 6679,
            "type" : "VEC3"
        },
        {
            "bufferView" : 19,
            "componentType" : 5123,
            "count" : 9588,
            "type" : "SCALAR"
        }
    ],
    "bufferViews" : [
        {
            "buffer" : 0,
            "byteLength" : 103824,
            "byteOffset" : 0,
            "target" : 34962
        },
        {
            "buffer" : 0,
            "byteLength" : 69216,
            "byteOffset" : 103824,
            "target" : 34962
        },
        {
            "buffer" : 0,
            "byteLength" : 103824,
            "byteOffset" : 173040,
            "target" : 34962
        },
        {
            "buffer" : 0,
            "byteLength" : 29154,
            "byteOffset" : 276864,
            "target" : 34963
        },
        {
            "buffer" : 0,
            "byteLength" : 227844,
            "byteOffset" : 306020,
            "target" : 34962
        },
        {
            "buffer" : 0,
            "byteLength" : 151896,
            "byteOffset" : 533864,
            "target" : 34962
        },
        {
            "buffer" : 0,
            "byteLength" : 227844,
            "byteOffset" : 685760,
            "target" : 34962
        },
        {
            "buffer" : 0,
            "byteLength" : 58236,
            "byteOffset" : 913604,
            "target" : 34963
        },
        {
            "buffer" : 0,
            "byteLength" : 183048,
            "byteOffset" : 971840,
            "target" : 34962
        },
        {
            "buffer" : 0,
            "byteLength" : 122032,
            "byteOffset" : 1154888,
            "target" : 34962
        },
        {
            "buffer" : 0,
            "byteLength" : 183048,
            "byteOffset" : 1276920,
            "target" : 34962
        },
        {
            "buffer" : 0,
            "byteLength" : 51168,
            "byteOffset" : 1459968,
            "target" : 34963
        },
        {
            "buffer" : 0,
            "byteLength" : 176400,
            "byteOffset" : 1511136,
            "target" : 34962
        },
        {
            "buffer" : 0,
            "byteLength" : 117600,
            "byteOffset" : 1687536,
            "target" : 34962
        },
        {
            "buffer" : 0,
            "byteLength" : 176400,
            "byteOffset" : 1805136,
            "target" : 34962
        },
        {
            "buffer" : 0,
            "byteLength" : 45564,
            "byteOffset" : 1981536,
            "target" : 34963
        },
        {
            "buffer" : 0,
            "byteLength" : 80148,
            "byteOffset" : 2027100,
            "target" : 34962
        },
        {
            "buffer" : 0,
            "byteLength" : 53432,
            "byteOffset" : 2107248,
            "target" : 34962
        },
        {
            "buffer" : 0,
            "byteLength" : 80148,
            "byteOffset" : 2160680,
            "target" : 34962
        },
        {
            "buffer" : 0,
            "byteLength" : 19176,
            "byteOffset" : 2240828,
            "target" : 34963
        }
    ],
    "samplers" : [
        {
            "magFilter" : 9729,
            "minFilter" : 9987
        }
    ],
    "buffers" : [
        {
            "byteLength" : 2260004,
            "uri" : "scene.bin"
        }
    ]
}
