{
    "asset" : {
        "generator" : "Khronos glTF Blender I/O v3.4.50",
        "version" : "2.0"
    },
    "scene" : 0,
    "scenes" : [
        {
            "name" : "Scene",
            "nodes" : [
                3,
                4,
                5,
                6,
                7,
                8,
                9,
                10,
                11,
                12
            ]
        }
    ],
    "nodes" : [
        {
            "name" : "Character1_Reference",
            "translation" : [
                0,
                -48.279632568359375,
                0
            ]
        },
        {
            "children" : [
                0
            ],
            "name" : "RootNode"
        },
        {
            "children" : [
                1
            ],
            "name" : "Cat.fbx",
            "rotation" : [
                0.70710688829422,
                0,
                0,
                0.7071066498756409
            ]
        },
        {
            "children" : [
                2
            ],
            "name" : "Sketchfab_model",
            "rotation" : [
                -0.70710688829422,
                0,
                0,
                0.7071066498756409
            ]
        },
        {
            "mesh" : 0,
            "name" : "Object_7"
        },
        {
            "mesh" : 1,
            "name" : "Object_8"
        },
        {
            "mesh" : 2,
            "name" : "Object_45"
        },
        {
            "mesh" : 3,
            "name" : "Object_47"
        },
        {
            "name" : "Object_6"
        },
        {
            "name" : "Object_42"
        },
        {
            "name" : "Object_44"
        },
        {
            "name" : "Object_46"
        },
        {
            "name" : "Object_48"
        }
    ],
    "materials" : [
        {
            "doubleSided" : true,
            "name" : "anisotropic2",
            "pbrMetallicRoughness" : {
                "baseColorTexture" : {
                    "index" : 0
                },
                "metallicFactor" : 0,
                "roughnessFactor" : 0.6000000238418579
            }
        },
        {
            "doubleSided" : true,
            "name" : "anisotropic1",
            "pbrMetallicRoughness" : {
                "baseColorTexture" : {
                    "index" : 1
                },
                "metallicFactor" : 0,
                "roughnessFactor" : 0.6000000238418579
            }
        },
        {
            "doubleSided" : true,
            "name" : "anisotropic3",
            "pbrMetallicRoughness" : {
                "baseColorTexture" : {
                    "index" : 2
                },
                "metallicFactor" : 0,
                "roughnessFactor" : 0.6000000238418579
            }
        }
    ],
    "meshes" : [
        {
            "name" : "0",
            "primitives" : [
                {
                    "attributes" : {
                        "POSITION" : 0,
                        "TEXCOORD_0" : 1,
                        "NORMAL" : 2
                    },
                    "indices" : 3,
                    "material" : 0
                }
            ]
        },
        {
            "name" : "1",
            "primitives" : [
                {
                    "attributes" : {
                        "POSITION" : 4,
                        "TEXCOORD_0" : 5,
                        "NORMAL" : 6
                    },
                    "indices" : 7,
                    "material" : 1
                }
            ]
        },
        {
            "name" : "2",
            "primitives" : [
                {
                    "attributes" : {
                        "POSITION" : 8,
                        "TEXCOORD_0" : 9,
                        "NORMAL" : 10
                    },
                    "indices" : 11,
                    "material" : 2
                }
            ]
        },
        {
            "name" : "3",
            "primitives" : [
                {
                    "attributes" : {
                        "POSITION" : 12,
                        "TEXCOORD_0" : 13,
                        "NORMAL" : 14
                    },
                    "indices" : 15,
                    "material" : 2
                }
            ]
        }
    ],
    "textures" : [
        {
            "sampler" : 0,
            "source" : 0
        },
        {
            "sampler" : 0,
            "source" : 1
        },
        {
            "sampler" : 0,
            "source" : 2
        }
    ],
    "images" : [
        {
            "mimeType" : "image/png",
            "name" : "anisotropic2_baseColor",
            "uri" : "anisotropic2_baseColor.png"
        },
        {
            "mimeType" : "image/png",
            "name" : "anisotropic1_baseColor",
            "uri" : "anisotropic1_baseColor.png"
        },
        {
            "mimeType" : "image/png",
            "name" : "anisotropic3_baseColor",
            "uri" : "anisotropic3_baseColor.png"
        }
    ],
    "accessors" : [
        {
            "bufferView" : 0,
            "componentType" : 5126,
            "count" : 2247,
            "max" : [
                6.470691204071045,
                75.09149932861328,
                87.8713607788086
            ],
            "min" : [
                -5.578841209411621,
                68.08438110351562,
                70.54006958007812
            ],
            "type" : "VEC3"
        },
        {
            "bufferView" : 1,
            "componentType" : 5126,
            "count" : 2247,
            "type" : "VEC2"
        },
        {
            "bufferView" : 2,
            "componentType" : 5126,
            "count" : 2247,
            "type" : "VEC3"
        },
        {
            "bufferView" : 3,
            "componentType" : 5123,
            "count" : 10860,
            "type" : "SCALAR"
        },
        {
            "bufferView" : 4,
            "componentType" : 5126,
            "count" : 6666,
            "max" : [
                18.447513580322266,
                96.68687438964844,
                91.28207397460938
            ],
            "min" : [
                -17.413713455200195,
                -0.04870637133717537,
                -95.57611846923828
            ],
            "type" : "VEC3"
        },
        {
            "bufferView" : 5,
            "componentType" : 5126,
            "count" : 6666,
            "type" : "VEC2"
        },
        {
            "bufferView" : 6,
            "componentType" : 5126,
            "count" : 6666,
            "type" : "VEC3"
        },
        {
            "bufferView" : 7,
            "componentType" : 5123,
            "count" : 37932,
            "type" : "SCALAR"
        },
        {
            "bufferView" : 8,
            "componentType" : 5126,
            "count" : 446,
            "max" : [
                9.093999862670898,
                82.26991271972656,
                83.2904052734375
            ],
            "min" : [
                3.5415663719177246,
                76.83133697509766,
                78.22517395019531
            ],
            "type" : "VEC3"
        },
        {
            "bufferView" : 9,
            "componentType" : 5126,
            "count" : 446,
            "type" : "VEC2"
        },
        {
            "bufferView" : 10,
            "componentType" : 5126,
            "count" : 446,
            "type" : "VEC3"
        },
        {
            "bufferView" : 11,
            "componentType" : 5123,
            "count" : 2544,
            "type" : "SCALAR"
        },
        {
            "bufferView" : 12,
            "componentType" : 5126,
            "count" : 446,
            "max" : [
                -2.6103265285491943,
                82.26991271972656,
                83.2904052734375
            ],
            "min" : [
                -8.162759780883789,
                76.83133697509766,
                78.22517395019531
            ],
            "type" : "VEC3"
        },
        {
            "bufferView" : 13,
            "componentType" : 5126,
            "count" : 446,
            "type" : "VEC2"
        },
        {
            "bufferView" : 14,
            "componentType" : 5126,
            "count" : 446,
            "type" : "VEC3"
        },
        {
            "bufferView" : 15,
            "componentType" : 5123,
            "count" : 2544,
            "type" : "SCALAR"
        }
    ],
    "bufferViews" : [
        {
            "buffer" : 0,
            "byteLength" : 26964,
            "byteOffset" : 0,
            "target" : 34962
        },
        {
            "buffer" : 0,
            "byteLength" : 17976,
            "byteOffset" : 26964,
            "target" : 34962
        },
        {
            "buffer" : 0,
            "byteLength" : 26964,
            "byteOffset" : 44940,
            "target" : 34962
        },
        {
            "buffer" : 0,
            "byteLength" : 21720,
            "byteOffset" : 71904,
            "target" : 34963
        },
        {
            "buffer" : 0,
            "byteLength" : 79992,
            "byteOffset" : 93624,
            "target" : 34962
        },
        {
            "buffer" : 0,
            "byteLength" : 53328,
            "byteOffset" : 173616,
            "target" : 34962
        },
        {
            "buffer" : 0,
            "byteLength" : 79992,
            "byteOffset" : 226944,
            "target" : 34962
        },
        {
            "buffer" : 0,
            "byteLength" : 75864,
            "byteOffset" : 306936,
            "target" : 34963
        },
        {
            "buffer" : 0,
            "byteLength" : 5352,
            "byteOffset" : 382800,
            "target" : 34962
        },
        {
            "buffer" : 0,
            "byteLength" : 3568,
            "byteOffset" : 388152,
            "target" : 34962
        },
        {
            "buffer" : 0,
            "byteLength" : 5352,
            "byteOffset" : 391720,
            "target" : 34962
        },
        {
            "buffer" : 0,
            "byteLength" : 5088,
            "byteOffset" : 397072,
            "target" : 34963
        },
        {
            "buffer" : 0,
            "byteLength" : 5352,
            "byteOffset" : 402160,
            "target" : 34962
        },
        {
            "buffer" : 0,
            "byteLength" : 3568,
            "byteOffset" : 407512,
            "target" : 34962
        },
        {
            "buffer" : 0,
            "byteLength" : 5352,
            "byteOffset" : 411080,
            "target" : 34962
        },
        {
            "buffer" : 0,
            "byteLength" : 5088,
            "byteOffset" : 416432,
            "target" : 34963
        }
    ],
    "samplers" : [
        {
            "magFilter" : 9729,
            "minFilter" : 9987
        }
    ],
    "buffers" : [
        {
            "byteLength" : 421520,
            "uri" : "scene.bin"
        }
    ]
}
