{
    "asset" : {
        "generator" : "Khronos glTF Blender I/O v3.4.50",
        "version" : "2.0"
    },
    "extensionsUsed" : [
        "KHR_materials_clearcoat"
    ],
    "scene" : 0,
    "scenes" : [
        {
            "name" : "Scene",
            "nodes" : [
                0,
                1,
                2
            ]
        }
    ],
    "nodes" : [
        {
            "mesh" : 0,
            "name" : "Object_7",
            "translation" : [
                0,
                0.2962457835674286,
                0.1974971890449524
            ]
        },
        {
            "mesh" : 1,
            "name" : "Object_8",
            "translation" : [
                0,
                0.2962457835674286,
                0.1974971890449524
            ]
        },
        {
            "mesh" : 2,
            "name" : "Object_9",
            "translation" : [
                0,
                0.2962457835674286,
                0.1974971890449524
            ]
        }
    ],
    "materials" : [
        {
            "doubleSided" : true,
            "name" : "greatwhiteshark1",
            "normalTexture" : {
                "index" : 0
            },
            "pbrMetallicRoughness" : {
                "baseColorTexture" : {
                    "index" : 1
                },
                "metallicFactor" : 0,
                "roughnessFactor" : 0.6000000238418579
            }
        },
        {
            "doubleSided" : true,
            "extensions" : {
                "KHR_materials_clearcoat" : {
                    "clearcoatFactor" : 0.19961965084075928,
                    "clearcoatRoughnessFactor" : 0.260572224855423,
                    "clearcoatNormalTexture" : {
                        "index" : 2,
                        "scale" : 0
                    }
                }
            },
            "name" : "greatwhiteshark_eye1",
            "pbrMetallicRoughness" : {
                "baseColorTexture" : {
                    "index" : 3
                },
                "metallicFactor" : 0.8944789171218872,
                "roughnessFactor" : 0.6000000238418579
            }
        },
        {
            "doubleSided" : true,
            "name" : "greatwhiteshark_teet1",
            "pbrMetallicRoughness" : {
                "baseColorTexture" : {
                    "index" : 4
                },
                "metallicFactor" : 0,
                "roughnessFactor" : 0.6000000238418579
            }
        }
    ],
    "meshes" : [
        {
            "name" : "Great_White_greatwhiteshark1_0",
            "primitives" : [
                {
                    "attributes" : {
                        "POSITION" : 0,
                        "TEXCOORD_0" : 1,
                        "NORMAL" : 2
                    },
                    "indices" : 3,
                    "material" : 0
                }
            ]
        },
        {
            "name" : "Great_White_greatwhiteshark_eye1_0",
            "primitives" : [
                {
                    "attributes" : {
                        "POSITION" : 4,
                        "TEXCOORD_0" : 5,
                        "NORMAL" : 6
                    },
                    "indices" : 7,
                    "material" : 1
                }
            ]
        },
        {
            "name" : "Great_White_greatwhiteshark_teet1_0",
            "primitives" : [
                {
                    "attributes" : {
                        "POSITION" : 8,
                        "TEXCOORD_0" : 9,
                        "NORMAL" : 10
                    },
                    "indices" : 11,
                    "material" : 2
                }
            ]
        }
    ],
    "textures" : [
        {
            "sampler" : 0,
            "source" : 0
        },
        {
            "sampler" : 0,
            "source" : 1
        },
        {
            "sampler" : 0,
            "source" : 2
        },
        {
            "sampler" : 0,
            "source" : 3
        },
        {
            "sampler" : 0,
            "source" : 4
        }
    ],
    "images" : [
        {
            "mimeType" : "image/png",
            "name" : "greatwhiteshark1_normal",
            "uri" : "greatwhiteshark1_normal.png"
        },
        {
            "mimeType" : "image/jpeg",
            "name" : "greatwhiteshark1_baseColor",
            "uri" : "greatwhiteshark1_baseColor.jpg"
        },
        {
            "mimeType" : "image/png",
            "name" : "greatwhiteshark_eye1_clearcoat_normal",
            "uri" : "greatwhiteshark_eye1_clearcoat_normal.png"
        },
        {
            "mimeType" : "image/png",
            "name" : "greatwhiteshark_eye1_baseColor",
            "uri" : "greatwhiteshark_eye1_baseColor.png"
        },
        {
            "mimeType" : "image/png",
            "name" : "greatwhiteshark_teet1_baseColor",
            "uri" : "greatwhiteshark_teet1_baseColor.png"
        }
    ],
    "accessors" : [
        {
            "bufferView" : 0,
            "componentType" : 5126,
            "count" : 1970,
            "max" : [
                0.6801509261131287,
                0.7610403895378113,
                1.3375717401504517
            ],
            "min" : [
                -0.6730427145957947,
                -0.8093312382698059,
                -2.458885669708252
            ],
            "type" : "VEC3"
        },
        {
            "bufferView" : 1,
            "componentType" : 5126,
            "count" : 1970,
            "type" : "VEC2"
        },
        {
            "bufferView" : 2,
            "componentType" : 5126,
            "count" : 1970,
            "type" : "VEC3"
        },
        {
            "bufferView" : 3,
            "componentType" : 5123,
            "count" : 8730,
            "type" : "SCALAR"
        },
        {
            "bufferView" : 4,
            "componentType" : 5126,
            "count" : 152,
            "max" : [
                0.20643562078475952,
                -0.09486815333366394,
                1.055341362953186
            ],
            "min" : [
                -0.210032656788826,
                -0.14734748005867004,
                1.0052145719528198
            ],
            "type" : "VEC3"
        },
        {
            "bufferView" : 5,
            "componentType" : 5126,
            "count" : 152,
            "type" : "VEC2"
        },
        {
            "bufferView" : 6,
            "componentType" : 5126,
            "count" : 152,
            "type" : "VEC3"
        },
        {
            "bufferView" : 7,
            "componentType" : 5123,
            "count" : 660,
            "type" : "SCALAR"
        },
        {
            "bufferView" : 8,
            "componentType" : 5126,
            "count" : 1200,
            "max" : [
                0.17907249927520752,
                -0.25086236000061035,
                1.1154769659042358
            ],
            "min" : [
                -0.15343070030212402,
                -0.34900015592575073,
                0.8834373354911804
            ],
            "type" : "VEC3"
        },
        {
            "bufferView" : 9,
            "componentType" : 5126,
            "count" : 1200,
            "type" : "VEC2"
        },
        {
            "bufferView" : 10,
            "componentType" : 5126,
            "count" : 1200,
            "type" : "VEC3"
        },
        {
            "bufferView" : 11,
            "componentType" : 5123,
            "count" : 3744,
            "type" : "SCALAR"
        }
    ],
    "bufferViews" : [
        {
            "buffer" : 0,
            "byteLength" : 23640,
            "byteOffset" : 0,
            "target" : 34962
        },
        {
            "buffer" : 0,
            "byteLength" : 15760,
            "byteOffset" : 23640,
            "target" : 34962
        },
        {
            "buffer" : 0,
            "byteLength" : 23640,
            "byteOffset" : 39400,
            "target" : 34962
        },
        {
            "buffer" : 0,
            "byteLength" : 17460,
            "byteOffset" : 63040,
            "target" : 34963
        },
        {
            "buffer" : 0,
            "byteLength" : 1824,
            "byteOffset" : 80500,
            "target" : 34962
        },
        {
            "buffer" : 0,
            "byteLength" : 1216,
            "byteOffset" : 82324,
            "target" : 34962
        },
        {
            "buffer" : 0,
            "byteLength" : 1824,
            "byteOffset" : 83540,
            "target" : 34962
        },
        {
            "buffer" : 0,
            "byteLength" : 1320,
            "byteOffset" : 85364,
            "target" : 34963
        },
        {
            "buffer" : 0,
            "byteLength" : 14400,
            "byteOffset" : 86684,
            "target" : 34962
        },
        {
            "buffer" : 0,
            "byteLength" : 9600,
            "byteOffset" : 101084,
            "target" : 34962
        },
        {
            "buffer" : 0,
            "byteLength" : 14400,
            "byteOffset" : 110684,
            "target" : 34962
        },
        {
            "buffer" : 0,
            "byteLength" : 7488,
            "byteOffset" : 125084,
            "target" : 34963
        }
    ],
    "samplers" : [
        {
            "magFilter" : 9729,
            "minFilter" : 9987
        }
    ],
    "buffers" : [
        {
            "byteLength" : 132572,
            "uri" : "scene.bin"
        }
    ]
}
