{
    "asset" : {
        "generator" : "Khronos glTF Blender I/O v3.4.50",
        "version" : "2.0"
    },
    "scene" : 0,
    "scenes" : [
        {
            "name" : "Scene",
            "nodes" : [
                4,
                9,
                14,
                19
            ]
        }
    ],
    "nodes" : [
        {
            "mesh" : 0,
            "name" : "Object114_Material #9588_0"
        },
        {
            "children" : [
                0
            ],
            "name" : "Object114",
            "rotation" : [
                -0.70710688829422,
                0,
                0,
                0.7071066498756409
            ],
            "scale" : [
                1.0499999523162842,
                1.0499999523162842,
                1.0499999523162842
            ],
            "translation" : [
                0,
                0,
                0.00024378515081480145
            ]
        },
        {
            "children" : [
                1
            ],
            "name" : "RootNode",
            "translation" : [
                0,
                0,
                0.00024378515081480145
            ]
        },
        {
            "children" : [
                2
            ],
            "name" : "71b50789a81d4fd89ace4ed0952ec380.fbx",
            "rotation" : [
                0.70710688829422,
                0,
                0,
                0.7071066498756409
            ]
        },
        {
            "children" : [
                3
            ],
            "name" : "Sketchfab_model",
            "rotation" : [
                -0.5000000596046448,
                -0.4999999403953552,
                -0.4999999403953552,
                0.5000000596046448
            ],
            "translation" : [
                -3161.955078125,
                0,
                -1.490966796875
            ]
        },
        {
            "mesh" : 1,
            "name" : "Object114_Material #9588_0.001",
            "translation" : [
                0,
                -0.00024380207469221205,
                0
            ]
        },
        {
            "children" : [
                5
            ],
            "name" : "Object114.001",
            "rotation" : [
                -0.70710688829422,
                0,
                0,
                0.7071066498756409
            ],
            "scale" : [
                1.0499999523162842,
                1.0499999523162842,
                1.0499999523162842
            ],
            "translation" : [
                0,
                0,
                0.00012171483831480145
            ]
        },
        {
            "children" : [
                6
            ],
            "name" : "RootNode.001",
            "translation" : [
                0,
                0,
                0.00012171483831480145
            ]
        },
        {
            "children" : [
                7
            ],
            "name" : "71b50789a81d4fd89ace4ed0952ec380.fbx.001",
            "rotation" : [
                0.70710688829422,
                0,
                0,
                0.7071066498756409
            ]
        },
        {
            "children" : [
                8
            ],
            "name" : "Sketchfab_model.001",
            "rotation" : [
                -0.5000000596046448,
                -0.4999999403953552,
                -0.4999999403953552,
                0.5000000596046448
            ],
            "translation" : [
                -1055.5194091796875,
                0,
                -1.490966796875
            ]
        },
        {
            "mesh" : 2,
            "name" : "Object114_Material #9588_0.002"
        },
        {
            "children" : [
                10
            ],
            "name" : "Object114.002",
            "rotation" : [
                -0.70710688829422,
                0,
                0,
                0.7071066498756409
            ],
            "scale" : [
                1.0499999523162842,
                1.0499999523162842,
                1.0499999523162842
            ],
            "translation" : [
                0,
                0,
                -0.00024449615739285946
            ]
        },
        {
            "children" : [
                11
            ],
            "name" : "RootNode.002",
            "translation" : [
                0,
                0,
                -0.00024449615739285946
            ]
        },
        {
            "children" : [
                12
            ],
            "name" : "71b50789a81d4fd89ace4ed0952ec380.fbx.002",
            "rotation" : [
                0.70710688829422,
                0,
                0,
                0.7071066498756409
            ]
        },
        {
            "children" : [
                13
            ],
            "name" : "Sketchfab_model.002",
            "rotation" : [
                -0.5000000596046448,
                -0.4999999403953552,
                -0.4999999403953552,
                0.5000000596046448
            ],
            "translation" : [
                3161.955078125,
                0,
                -1.4912109375
            ]
        },
        {
            "mesh" : 3,
            "name" : "Object114_Material #9588_0.003",
            "translation" : [
                0,
                0.00024447921896353364,
                0
            ]
        },
        {
            "children" : [
                15
            ],
            "name" : "Object114.003",
            "rotation" : [
                -0.70710688829422,
                0,
                0,
                0.7071066498756409
            ],
            "scale" : [
                1.0499999523162842,
                1.0499999523162842,
                1.0499999523162842
            ],
            "translation" : [
                0,
                0,
                -0.00012242584489285946
            ]
        },
        {
            "children" : [
                16
            ],
            "name" : "RootNode.003",
            "translation" : [
                0,
                0,
                -0.00012242584489285946
            ]
        },
        {
            "children" : [
                17
            ],
            "name" : "71b50789a81d4fd89ace4ed0952ec380.fbx.003",
            "rotation" : [
                0.70710688829422,
                0,
                0,
                0.7071066498756409
            ]
        },
        {
            "children" : [
                18
            ],
            "name" : "Sketchfab_model.003",
            "rotation" : [
                -0.5000000596046448,
                -0.4999999403953552,
                -0.4999999403953552,
                0.5000000596046448
            ],
            "translation" : [
                1055.5194091796875,
                0,
                -1.4912109375
            ]
        }
    ],
    "materials" : [
        {
            "doubleSided" : true,
            "name" : "Material_9588",
            "normalTexture" : {
                "index" : 0
            },
            "pbrMetallicRoughness" : {
                "baseColorTexture" : {
                    "index" : 1
                },
                "metallicRoughnessTexture" : {
                    "index" : 2
                }
            }
        },
        {
            "doubleSided" : true,
            "name" : "Material_9588.001",
            "normalTexture" : {
                "index" : 3
            },
            "pbrMetallicRoughness" : {
                "baseColorTexture" : {
                    "index" : 4
                },
                "metallicRoughnessTexture" : {
                    "index" : 5
                }
            }
        },
        {
            "doubleSided" : true,
            "name" : "Material_9588.002",
            "normalTexture" : {
                "index" : 6
            },
            "pbrMetallicRoughness" : {
                "baseColorTexture" : {
                    "index" : 7
                },
                "metallicRoughnessTexture" : {
                    "index" : 8
                }
            }
        },
        {
            "doubleSided" : true,
            "name" : "Material_9588.003",
            "normalTexture" : {
                "index" : 9
            },
            "pbrMetallicRoughness" : {
                "baseColorTexture" : {
                    "index" : 10
                },
                "metallicRoughnessTexture" : {
                    "index" : 11
                }
            }
        }
    ],
    "meshes" : [
        {
            "name" : "Object114_Material #9588_0",
            "primitives" : [
                {
                    "attributes" : {
                        "POSITION" : 0,
                        "TEXCOORD_0" : 1,
                        "NORMAL" : 2
                    },
                    "indices" : 3,
                    "material" : 0
                }
            ]
        },
        {
            "name" : "Object114_Material #9588_0.001",
            "primitives" : [
                {
                    "attributes" : {
                        "POSITION" : 4,
                        "TEXCOORD_0" : 5,
                        "NORMAL" : 6
                    },
                    "indices" : 3,
                    "material" : 1
                }
            ]
        },
        {
            "name" : "Object114_Material #9588_0.002",
            "primitives" : [
                {
                    "attributes" : {
                        "POSITION" : 7,
                        "TEXCOORD_0" : 8,
                        "NORMAL" : 9
                    },
                    "indices" : 3,
                    "material" : 2
                }
            ]
        },
        {
            "name" : "Object114_Material #9588_0.003",
            "primitives" : [
                {
                    "attributes" : {
                        "POSITION" : 10,
                        "TEXCOORD_0" : 11,
                        "NORMAL" : 12
                    },
                    "indices" : 3,
                    "material" : 3
                }
            ]
        }
    ],
    "textures" : [
        {
            "sampler" : 0,
            "source" : 0
        },
        {
            "sampler" : 0,
            "source" : 1
        },
        {
            "sampler" : 0,
            "source" : 2
        },
        {
            "sampler" : 0,
            "source" : 0
        },
        {
            "sampler" : 0,
            "source" : 1
        },
        {
            "sampler" : 0,
            "source" : 2
        },
        {
            "sampler" : 0,
            "source" : 0
        },
        {
            "sampler" : 0,
            "source" : 1
        },
        {
            "sampler" : 0,
            "source" : 2
        },
        {
            "sampler" : 0,
            "source" : 0
        },
        {
            "sampler" : 0,
            "source" : 1
        },
        {
            "sampler" : 0,
            "source" : 2
        }
    ],
    "images" : [
        {
            "mimeType" : "image/png",
            "name" : "Material_9588_normal",
            "uri" : "Material_9588_normal.png"
        },
        {
            "mimeType" : "image/jpeg",
            "name" : "Material_9588_baseColor",
            "uri" : "Material_9588_baseColor.jpg"
        },
        {
            "mimeType" : "image/png",
            "name" : "Material_9588_metallicRoughness",
            "uri" : "Material_9588_metallicRoughness.png"
        }
    ],
    "accessors" : [
        {
            "bufferView" : 0,
            "componentType" : 5126,
            "count" : 44458,
            "max" : [
                177.1185302734375,
                1029.7445068359375,
                514.3790283203125
            ],
            "min" : [
                -177.1185302734375,
                -1029.7445068359375,
                -1.4654388427734375
            ],
            "type" : "VEC3"
        },
        {
            "bufferView" : 1,
            "componentType" : 5126,
            "count" : 44458,
            "type" : "VEC2"
        },
        {
            "bufferView" : 2,
            "componentType" : 5126,
            "count" : 44458,
            "type" : "VEC3"
        },
        {
            "bufferView" : 3,
            "componentType" : 5123,
            "count" : 131793,
            "type" : "SCALAR"
        },
        {
            "bufferView" : 4,
            "componentType" : 5126,
            "count" : 44458,
            "max" : [
                177.1185302734375,
                1029.7445068359375,
                514.3790283203125
            ],
            "min" : [
                -177.1185302734375,
                -1029.7445068359375,
                -1.4654388427734375
            ],
            "type" : "VEC3"
        },
        {
            "bufferView" : 5,
            "componentType" : 5126,
            "count" : 44458,
            "type" : "VEC2"
        },
        {
            "bufferView" : 6,
            "componentType" : 5126,
            "count" : 44458,
            "type" : "VEC3"
        },
        {
            "bufferView" : 7,
            "componentType" : 5126,
            "count" : 44458,
            "max" : [
                177.1185302734375,
                1029.7445068359375,
                514.3790283203125
            ],
            "min" : [
                -177.1185302734375,
                -1029.7445068359375,
                -1.4654388427734375
            ],
            "type" : "VEC3"
        },
        {
            "bufferView" : 8,
            "componentType" : 5126,
            "count" : 44458,
            "type" : "VEC2"
        },
        {
            "bufferView" : 9,
            "componentType" : 5126,
            "count" : 44458,
            "type" : "VEC3"
        },
        {
            "bufferView" : 10,
            "componentType" : 5126,
            "count" : 44458,
            "max" : [
                177.1185302734375,
                1029.7445068359375,
                514.3790283203125
            ],
            "min" : [
                -177.1185302734375,
                -1029.7445068359375,
                -1.4654388427734375
            ],
            "type" : "VEC3"
        },
        {
            "bufferView" : 11,
            "componentType" : 5126,
            "count" : 44458,
            "type" : "VEC2"
        },
        {
            "bufferView" : 12,
            "componentType" : 5126,
            "count" : 44458,
            "type" : "VEC3"
        }
    ],
    "bufferViews" : [
        {
            "buffer" : 0,
            "byteLength" : 533496,
            "byteOffset" : 0,
            "target" : 34962
        },
        {
            "buffer" : 0,
            "byteLength" : 355664,
            "byteOffset" : 533496,
            "target" : 34962
        },
        {
            "buffer" : 0,
            "byteLength" : 533496,
            "byteOffset" : 889160,
            "target" : 34962
        },
        {
            "buffer" : 0,
            "byteLength" : 263586,
            "byteOffset" : 1422656,
            "target" : 34963
        },
        {
            "buffer" : 0,
            "byteLength" : 533496,
            "byteOffset" : 1686244,
            "target" : 34962
        },
        {
            "buffer" : 0,
            "byteLength" : 355664,
            "byteOffset" : 2219740,
            "target" : 34962
        },
        {
            "buffer" : 0,
            "byteLength" : 533496,
            "byteOffset" : 2575404,
            "target" : 34962
        },
        {
            "buffer" : 0,
            "byteLength" : 533496,
            "byteOffset" : 3108900,
            "target" : 34962
        },
        {
            "buffer" : 0,
            "byteLength" : 355664,
            "byteOffset" : 3642396,
            "target" : 34962
        },
        {
            "buffer" : 0,
            "byteLength" : 533496,
            "byteOffset" : 3998060,
            "target" : 34962
        },
        {
            "buffer" : 0,
            "byteLength" : 533496,
            "byteOffset" : 4531556,
            "target" : 34962
        },
        {
            "buffer" : 0,
            "byteLength" : 355664,
            "byteOffset" : 5065052,
            "target" : 34962
        },
        {
            "buffer" : 0,
            "byteLength" : 533496,
            "byteOffset" : 5420716,
            "target" : 34962
        }
    ],
    "samplers" : [
        {
            "magFilter" : 9729,
            "minFilter" : 9987
        }
    ],
    "buffers" : [
        {
            "byteLength" : 5954212,
            "uri" : "scene.bin"
        }
    ]
}
