{
    "asset" : {
        "generator" : "Khronos glTF Blender I/O v3.4.50",
        "version" : "2.0"
    },
    "extensionsUsed" : [
        "KHR_texture_transform"
    ],
    "extensionsRequired" : [
        "KHR_texture_transform"
    ],
    "scene" : 0,
    "scenes" : [
        {
            "name" : "Scene",
            "nodes" : [
                4
            ]
        }
    ],
    "nodes" : [
        {
            "mesh" : 0,
            "name" : "Object_4"
        },
        {
            "children" : [
                0
            ],
            "name" : "Object_2_0",
            "rotation" : [
                -0.70710688829422,
                0,
                0,
                0.7071066498756409
            ],
            "scale" : [
                0.035504698753356934,
                0.035504695028066635,
                0.035504695028066635
            ],
            "translation" : [
                0.186205193400383,
                -1.3073737621307373,
                0.37631282210350037
            ]
        },
        {
            "children" : [
                1
            ],
            "name" : "GLTF_SceneRootNode",
            "rotation" : [
                0.70710688829422,
                0,
                0,
                0.7071066498756409
            ]
        },
        {
            "children" : [
                2
            ],
            "name" : "root"
        },
        {
            "children" : [
                3
            ],
            "name" : "Sketchfab_model",
            "rotation" : [
                -0.70710688829422,
                0,
                0,
                0.7071066498756409
            ],
            "translation" : [
                0,
                0.699999988079071,
                0
            ]
        }
    ],
    "materials" : [
        {
            "doubleSided" : true,
            "name" : "Copper_Rough",
            "normalTexture" : {
                "extensions" : {
                    "KHR_texture_transform" : {
                        "scale" : [
                            1.2999999523162842,
                            1
                        ]
                    }
                },
                "index" : 0
            },
            "pbrMetallicRoughness" : {
                "baseColorTexture" : {
                    "extensions" : {
                        "KHR_texture_transform" : {
                            "scale" : [
                                1.2999999523162842,
                                1
                            ]
                        }
                    },
                    "index" : 1
                },
                "metallicRoughnessTexture" : {
                    "extensions" : {
                        "KHR_texture_transform" : {
                            "scale" : [
                                1.2999999523162842,
                                1
                            ]
                        }
                    },
                    "index" : 2
                }
            }
        }
    ],
    "meshes" : [
        {
            "name" : "Object_0.003",
            "primitives" : [
                {
                    "attributes" : {
                        "POSITION" : 0,
                        "TEXCOORD_0" : 1,
                        "TEXCOORD_1" : 2,
                        "TEXCOORD_2" : 3,
                        "TEXCOORD_3" : 4,
                        "TEXCOORD_4" : 5,
                        "TEXCOORD_5" : 6,
                        "NORMAL" : 7
                    },
                    "indices" : 8,
                    "material" : 0
                }
            ]
        }
    ],
    "textures" : [
        {
            "sampler" : 0,
            "source" : 0
        },
        {
            "sampler" : 0,
            "source" : 1
        },
        {
            "sampler" : 0,
            "source" : 2
        }
    ],
    "images" : [
        {
            "mimeType" : "image/jpeg",
            "name" : "Copper_Rough_normal",
            "uri" : "Copper_Rough_normal.jpg"
        },
        {
            "mimeType" : "image/jpeg",
            "name" : "Copper_Rough_baseColor",
            "uri" : "Copper_Rough_baseColor.jpg"
        },
        {
            "mimeType" : "image/png",
            "name" : "Copper_Rough_metallicRoughness",
            "uri" : "Copper_Rough_metallicRoughness.png"
        }
    ],
    "accessors" : [
        {
            "bufferView" : 0,
            "componentType" : 5126,
            "count" : 21842,
            "max" : [
                73.84272003173828,
                88.18922424316406,
                447.3478698730469
            ],
            "min" : [
                -88.95006561279297,
                -83.65778350830078,
                16.504608154296875
            ],
            "type" : "VEC3"
        },
        {
            "bufferView" : 1,
            "componentType" : 5126,
            "count" : 21842,
            "type" : "VEC2"
        },
        {
            "bufferView" : 2,
            "componentType" : 5126,
            "count" : 21842,
            "type" : "VEC2"
        },
        {
            "bufferView" : 3,
            "componentType" : 5126,
            "count" : 21842,
            "type" : "VEC2"
        },
        {
            "bufferView" : 4,
            "componentType" : 5126,
            "count" : 21842,
            "type" : "VEC2"
        },
        {
            "bufferView" : 5,
            "componentType" : 5126,
            "count" : 21842,
            "type" : "VEC2"
        },
        {
            "bufferView" : 6,
            "componentType" : 5126,
            "count" : 21842,
            "type" : "VEC2"
        },
        {
            "bufferView" : 7,
            "componentType" : 5126,
            "count" : 21842,
            "type" : "VEC3"
        },
        {
            "bufferView" : 8,
            "componentType" : 5123,
            "count" : 24786,
            "type" : "SCALAR"
        }
    ],
    "bufferViews" : [
        {
            "buffer" : 0,
            "byteLength" : 262104,
            "byteOffset" : 0,
            "target" : 34962
        },
        {
            "buffer" : 0,
            "byteLength" : 174736,
            "byteOffset" : 262104,
            "target" : 34962
        },
        {
            "buffer" : 0,
            "byteLength" : 174736,
            "byteOffset" : 436840,
            "target" : 34962
        },
        {
            "buffer" : 0,
            "byteLength" : 174736,
            "byteOffset" : 611576,
            "target" : 34962
        },
        {
            "buffer" : 0,
            "byteLength" : 174736,
            "byteOffset" : 786312,
            "target" : 34962
        },
        {
            "buffer" : 0,
            "byteLength" : 174736,
            "byteOffset" : 961048,
            "target" : 34962
        },
        {
            "buffer" : 0,
            "byteLength" : 174736,
            "byteOffset" : 1135784,
            "target" : 34962
        },
        {
            "buffer" : 0,
            "byteLength" : 262104,
            "byteOffset" : 1310520,
            "target" : 34962
        },
        {
            "buffer" : 0,
            "byteLength" : 49572,
            "byteOffset" : 1572624,
            "target" : 34963
        }
    ],
    "samplers" : [
        {
            "magFilter" : 9729,
            "minFilter" : 9987
        }
    ],
    "buffers" : [
        {
            "byteLength" : 1622196,
            "uri" : "scene.bin"
        }
    ]
}
