{
    "asset" : {
        "generator" : "Khronos glTF Blender I/O v3.4.50",
        "version" : "2.0"
    },
    "scene" : 0,
    "scenes" : [
        {
            "name" : "Scene",
            "nodes" : [
                3
            ]
        }
    ],
    "nodes" : [
        {
            "mesh" : 0,
            "name" : "Object_3",
            "translation" : [
                -0.0009765625,
                0,
                0
            ]
        },
        {
            "children" : [
                0
            ],
            "name" : "Object_2",
            "translation" : [
                -0.0009765625,
                0,
                0
            ]
        },
        {
            "children" : [
                1
            ],
            "name" : "skfb_offset",
            "translation" : [
                -10600,
                -8999.9990234375,
                -0.001209229463711381
            ]
        },
        {
            "children" : [
                2
            ],
            "name" : "Sketchfab_model",
            "rotation" : [
                -0.70710688829422,
                0,
                0,
                0.7071066498756409
            ]
        }
    ],
    "materials" : [
        {
            "doubleSided" : true,
            "name" : "rastMat.003",
            "pbrMetallicRoughness" : {
                "baseColorTexture" : {
                    "index" : 0
                },
                "metallicFactor" : 0,
                "roughnessFactor" : 0.806350827217102
            }
        }
    ],
    "meshes" : [
        {
            "name" : "Object_0.007",
            "primitives" : [
                {
                    "attributes" : {
                        "POSITION" : 0,
                        "TEXCOORD_0" : 1,
                        "NORMAL" : 2
                    },
                    "indices" : 3,
                    "material" : 0
                }
            ]
        }
    ],
    "textures" : [
        {
            "sampler" : 0,
            "source" : 0
        }
    ],
    "images" : [
        {
            "mimeType" : "image/png",
            "name" : "rastMat.002_baseColor",
            "uri" : "rastMat_002_baseColor.png"
        }
    ],
    "accessors" : [
        {
            "bufferView" : 0,
            "componentType" : 5126,
            "count" : 4225,
            "max" : [
                20790.875,
                17733.392578125,
                4630.2802734375
            ],
            "min" : [
                0,
                0,
                0
            ],
            "type" : "VEC3"
        },
        {
            "bufferView" : 1,
            "componentType" : 5126,
            "count" : 4225,
            "type" : "VEC2"
        },
        {
            "bufferView" : 2,
            "componentType" : 5126,
            "count" : 4225,
            "type" : "VEC3"
        },
        {
            "bufferView" : 3,
            "componentType" : 5123,
            "count" : 24576,
            "type" : "SCALAR"
        }
    ],
    "bufferViews" : [
        {
            "buffer" : 0,
            "byteLength" : 50700,
            "byteOffset" : 0,
            "target" : 34962
        },
        {
            "buffer" : 0,
            "byteLength" : 33800,
            "byteOffset" : 50700,
            "target" : 34962
        },
        {
            "buffer" : 0,
            "byteLength" : 50700,
            "byteOffset" : 84500,
            "target" : 34962
        },
        {
            "buffer" : 0,
            "byteLength" : 49152,
            "byteOffset" : 135200,
            "target" : 34963
        }
    ],
    "samplers" : [
        {
            "magFilter" : 9729,
            "minFilter" : 9987
        }
    ],
    "buffers" : [
        {
            "byteLength" : 184352,
            "uri" : "scene.bin"
        }
    ]
}
