{
    "asset" : {
        "generator" : "Khronos glTF Blender I/O v3.4.50",
        "version" : "2.0"
    },
    "scene" : 0,
    "scenes" : [
        {
            "name" : "Scene",
            "nodes" : [
                5,
                6,
                7
            ]
        }
    ],
    "nodes" : [
        {
            "name" : "Lamp.001"
        },
        {
            "children" : [
                0
            ],
            "name" : "Lamp",
            "rotation" : [
                -0.22695763409137726,
                0.07677620649337769,
                0.015786882489919662,
                0.970745325088501
            ],
            "scale" : [
                1,
                0.9999973177909851,
                1
            ],
            "translation" : [
                0.028149999678134918,
                2.3089001178741455,
                2.5421600341796875
            ]
        },
        {
            "name" : "Lamp.003"
        },
        {
            "children" : [
                2
            ],
            "name" : "Lamp.002",
            "rotation" : [
                -0.22695763409137726,
                0.07677620649337769,
                0.015786882489919662,
                0.970745325088501
            ],
            "scale" : [
                1,
                0.9999973177909851,
                1
            ],
            "translation" : [
                -2.1558001041412354,
                -2.8169898986816406,
                5.4578399658203125
            ]
        },
        {
            "children" : [
                1,
                3
            ],
            "name" : "Root"
        },
        {
            "children" : [
                4
            ],
            "name" : "Sketchfab_model",
            "rotation" : [
                -0.70710688829422,
                0,
                0,
                0.7071066498756409
            ]
        },
        {
            "mesh" : 0,
            "name" : "Cube.011_0",
            "rotation" : [
                -0.5213338136672974,
                0.4777144193649292,
                0.5213336944580078,
                0.477714478969574
            ]
        },
        {
            "name" : "Cube.011"
        }
    ],
    "materials" : [
        {
            "doubleSided" : true,
            "name" : "Material.012",
            "normalTexture" : {
                "index" : 0
            },
            "pbrMetallicRoughness" : {
                "baseColorTexture" : {
                    "index" : 1
                },
                "metallicFactor" : 0,
                "metallicRoughnessTexture" : {
                    "index" : 2
                },
                "roughnessFactor" : 0.8092708587646484
            }
        }
    ],
    "meshes" : [
        {
            "name" : "Cube.011",
            "primitives" : [
                {
                    "attributes" : {
                        "POSITION" : 0,
                        "TEXCOORD_0" : 1,
                        "TEXCOORD_1" : 2,
                        "TEXCOORD_2" : 3,
                        "NORMAL" : 4
                    },
                    "indices" : 5,
                    "material" : 0
                }
            ]
        }
    ],
    "textures" : [
        {
            "sampler" : 0,
            "source" : 0
        },
        {
            "sampler" : 0,
            "source" : 1
        },
        {
            "sampler" : 0,
            "source" : 2
        }
    ],
    "images" : [
        {
            "mimeType" : "image/png",
            "name" : "Material.012_normal",
            "uri" : "Material_012_normal.png"
        },
        {
            "mimeType" : "image/png",
            "name" : "Material.012_baseColor",
            "uri" : "Material_012_baseColor.png"
        },
        {
            "mimeType" : "image/png",
            "name" : "Material.012_metallicRoughness",
            "uri" : "Material_012_metallicRoughness.png"
        }
    ],
    "accessors" : [
        {
            "bufferView" : 0,
            "componentType" : 5126,
            "count" : 1267,
            "max" : [
                5.328728199005127,
                0.7225498557090759,
                6.062099456787109
            ],
            "min" : [
                -4.627378463745117,
                -0.722551167011261,
                -0.006593513768166304
            ],
            "type" : "VEC3"
        },
        {
            "bufferView" : 1,
            "componentType" : 5126,
            "count" : 1267,
            "type" : "VEC2"
        },
        {
            "bufferView" : 2,
            "componentType" : 5126,
            "count" : 1267,
            "type" : "VEC2"
        },
        {
            "bufferView" : 3,
            "componentType" : 5126,
            "count" : 1267,
            "type" : "VEC2"
        },
        {
            "bufferView" : 4,
            "componentType" : 5126,
            "count" : 1267,
            "type" : "VEC3"
        },
        {
            "bufferView" : 5,
            "componentType" : 5123,
            "count" : 6102,
            "type" : "SCALAR"
        }
    ],
    "bufferViews" : [
        {
            "buffer" : 0,
            "byteLength" : 15204,
            "byteOffset" : 0,
            "target" : 34962
        },
        {
            "buffer" : 0,
            "byteLength" : 10136,
            "byteOffset" : 15204,
            "target" : 34962
        },
        {
            "buffer" : 0,
            "byteLength" : 10136,
            "byteOffset" : 25340,
            "target" : 34962
        },
        {
            "buffer" : 0,
            "byteLength" : 10136,
            "byteOffset" : 35476,
            "target" : 34962
        },
        {
            "buffer" : 0,
            "byteLength" : 15204,
            "byteOffset" : 45612,
            "target" : 34962
        },
        {
            "buffer" : 0,
            "byteLength" : 12204,
            "byteOffset" : 60816,
            "target" : 34963
        }
    ],
    "samplers" : [
        {
            "magFilter" : 9729,
            "minFilter" : 9987
        }
    ],
    "buffers" : [
        {
            "byteLength" : 73020,
            "uri" : "scene.bin"
        }
    ]
}
