{
    "asset" : {
        "generator" : "Khronos glTF Blender I/O v3.4.50",
        "version" : "2.0"
    },
    "scene" : 0,
    "scenes" : [
        {
            "name" : "Scene",
            "nodes" : [
                4
            ]
        }
    ],
    "nodes" : [
        {
            "mesh" : 0,
            "name" : "Object_3",
            "scale" : [
                0.004999999888241291,
                0.004999999888241291,
                0.004999999888241291
            ],
            "translation" : [
                31.765625,
                37.31689453125,
                5.013853751734132e-06
            ]
        },
        {
            "mesh" : 1,
            "name" : "Object_4",
            "scale" : [
                0.004999999888241291,
                0.004999999888241291,
                0.004999999888241291
            ],
            "translation" : [
                31.765625,
                37.31689453125,
                5.013853751734132e-06
            ]
        },
        {
            "children" : [
                0,
                1
            ],
            "name" : "Object_2",
            "translation" : [
                -64.85993194580078,
                -79.76612091064453,
                -1.0717283657868393e-05
            ]
        },
        {
            "children" : [
                2
            ],
            "name" : "skfb_offset"
        },
        {
            "children" : [
                3
            ],
            "name" : "Sketchfab_model",
            "rotation" : [
                -0.70710688829422,
                0,
                0,
                0.7071066498756409
            ]
        }
    ],
    "materials" : [
        {
            "doubleSided" : true,
            "name" : "material_0",
            "pbrMetallicRoughness" : {
                "baseColorFactor" : [
                    0.3268125057220459,
                    0.3268125057220459,
                    0.3268125057220459,
                    1
                ],
                "baseColorTexture" : {
                    "index" : 0
                },
                "metallicFactor" : 0,
                "roughnessFactor" : 0.6000000238418579
            }
        },
        {
            "doubleSided" : true,
            "name" : "material_1",
            "pbrMetallicRoughness" : {
                "metallicFactor" : 0,
                "roughnessFactor" : 0.6000000238418579
            }
        }
    ],
    "meshes" : [
        {
            "name" : "Object_0.004",
            "primitives" : [
                {
                    "attributes" : {
                        "POSITION" : 0,
                        "TEXCOORD_0" : 1,
                        "NORMAL" : 2
                    },
                    "indices" : 3,
                    "material" : 0
                }
            ]
        },
        {
            "name" : "Object_1.003",
            "primitives" : [
                {
                    "attributes" : {
                        "POSITION" : 4,
                        "TEXCOORD_0" : 5,
                        "NORMAL" : 6
                    },
                    "indices" : 7,
                    "material" : 1
                }
            ]
        }
    ],
    "textures" : [
        {
            "sampler" : 0,
            "source" : 0
        }
    ],
    "images" : [
        {
            "mimeType" : "image/png",
            "name" : "material_0_baseColor",
            "uri" : "material_0_baseColor.png"
        }
    ],
    "accessors" : [
        {
            "bufferView" : 0,
            "componentType" : 5126,
            "count" : 18362,
            "max" : [
                14516.58203125,
                13643.009765625,
                82800
            ],
            "min" : [
                0,
                0,
                0
            ],
            "type" : "VEC3"
        },
        {
            "bufferView" : 1,
            "componentType" : 5126,
            "count" : 18362,
            "type" : "VEC2"
        },
        {
            "bufferView" : 2,
            "componentType" : 5126,
            "count" : 18362,
            "type" : "VEC3"
        },
        {
            "bufferView" : 3,
            "componentType" : 5123,
            "count" : 32418,
            "type" : "SCALAR"
        },
        {
            "bufferView" : 4,
            "componentType" : 5126,
            "count" : 12284,
            "max" : [
                14516.58203125,
                13643.009765625,
                72000
            ],
            "min" : [
                0,
                0,
                1300
            ],
            "type" : "VEC3"
        },
        {
            "bufferView" : 5,
            "componentType" : 5126,
            "count" : 12284,
            "type" : "VEC2"
        },
        {
            "bufferView" : 6,
            "componentType" : 5126,
            "count" : 12284,
            "type" : "VEC3"
        },
        {
            "bufferView" : 7,
            "componentType" : 5123,
            "count" : 17532,
            "type" : "SCALAR"
        }
    ],
    "bufferViews" : [
        {
            "buffer" : 0,
            "byteLength" : 220344,
            "byteOffset" : 0,
            "target" : 34962
        },
        {
            "buffer" : 0,
            "byteLength" : 146896,
            "byteOffset" : 220344,
            "target" : 34962
        },
        {
            "buffer" : 0,
            "byteLength" : 220344,
            "byteOffset" : 367240,
            "target" : 34962
        },
        {
            "buffer" : 0,
            "byteLength" : 64836,
            "byteOffset" : 587584,
            "target" : 34963
        },
        {
            "buffer" : 0,
            "byteLength" : 147408,
            "byteOffset" : 652420,
            "target" : 34962
        },
        {
            "buffer" : 0,
            "byteLength" : 98272,
            "byteOffset" : 799828,
            "target" : 34962
        },
        {
            "buffer" : 0,
            "byteLength" : 147408,
            "byteOffset" : 898100,
            "target" : 34962
        },
        {
            "buffer" : 0,
            "byteLength" : 35064,
            "byteOffset" : 1045508,
            "target" : 34963
        }
    ],
    "samplers" : [
        {
            "magFilter" : 9729,
            "minFilter" : 9987
        }
    ],
    "buffers" : [
        {
            "byteLength" : 1080572,
            "uri" : "scene.bin"
        }
    ]
}
